<?xml version="1.0" encoding="UTF-8" standalone="no" ?>
<!DOCTYPE svg PUBLIC "-//W3C//DTD SVG 1.1//EN" "http://www.w3.org/Graphics/SVG/1.1/DTD/svg11.dtd">
<svg xmlns="http://www.w3.org/2000/svg" xmlns:xlink="http://www.w3.org/1999/xlink" version="1.1" width="1080" height="1080" viewBox="0 0 1080 1080" xml:space="preserve">
<desc>Created with Fabric.js 5.2.4</desc>
<defs>
</defs>
<g transform="matrix(1 0 0 1 540 540)" id="2f21cc1f-c64c-4db2-bb07-2699aec2ae71"  >
</g>
<g transform="matrix(1 0 0 1 540 540)" id="5719d2cd-3fbe-4373-b2b2-dac5bf388762"  >
<rect style="stroke: none; stroke-width: 1; stroke-dasharray: none; stroke-linecap: butt; stroke-dashoffset: 0; stroke-linejoin: miter; stroke-miterlimit: 4; fill: rgb(255,255,255); fill-rule: nonzero; opacity: 1; visibility: hidden;" vector-effect="non-scaling-stroke"  x="-540" y="-540" rx="0" ry="0" width="1080" height="1080" />
</g>
<g transform="matrix(1 0 0 1 549.67 411.18)"  >
<path style="stroke: none; stroke-width: 1; stroke-dasharray: none; stroke-linecap: butt; stroke-dashoffset: 0; stroke-linejoin: miter; stroke-miterlimit: 4; fill: rgb(242,242,242); fill-rule: nonzero; opacity: 1;" vector-effect="non-scaling-stroke"  transform=" translate(-609.67, -321.18)" d="M 824.24088 170.37071 C 823.3708799999999 169.79071 822.49088 169.24071 821.6208799999999 168.68071 C 796.4718842007351 152.596481547809 769.5162548999186 139.52983170743062 741.3108799999998 129.75070999999988 L 734.77088 219.97071 L 693.31088 219.97071 L 693.31088 116.58071 C 690.70088 116.04070999999999 688.07088 115.53071 685.44088 115.05071 L 685.44088 219.97071 L 636.17077 219.97071 C 579.6886661509171 219.97071000000108 533.9008710456934 174.18292384908176 533.90086 117.70081999999998 L 533.90086 117.70071999999999 C 531.26086 118.27071999999998 528.64086 118.88072 526.02086 119.53071999999999 L 526.02086 219.97071999999997 L 485.89086 219.97071999999997 L 479.66085999999996 133.94071999999997 C 450.67553161943744 145.05701821691662 423.1580472093263 159.6754719192858 397.72086 177.47071999999983 C 397.28085999999996 177.77071999999998 396.84085999999996 178.08071999999999 396.41085999999996 178.38071999999997 C 394.20086 179.93071999999998 392.02085999999997 181.51071999999996 389.85085999999995 183.11076999999997 L 389.85085999999995 527.3007699999999 L 508.12085999999994 527.3007699999999 L 506.03085999999996 498.35076999999995 L 494.53085999999996 339.40076999999997 L 726.12086 339.40076999999997 L 714.62086 498.35076999999995 L 712.53086 527.3007699999999 L 829.49086 527.3007699999999 L 829.49086 173.85076999999995 Q 826.88081 172.08075 824.24088 170.37071 Z M 526.0208799999999 313.15071 L 492.63087999999993 313.15071 L 486.4608799999999 227.85071 L 526.0208799999999 227.85071 Z M 685.4408799999999 313.15071 L 629.3608799999998 313.15071 L 629.3608799999998 311.46071 C 629.360945975119 309.81991842223175 628.7084886408153 308.2464567513521 627.5473362418279 307.0871802043825 C 626.3861838428405 305.9279036574129 624.8116693265113 305.2779911704715 623.1708799999998 305.28071 L 598.7908799999998 305.28071 C 597.1516444649855 305.2800650657609 595.5793625361079 305.9309632311453 594.4202478836265 307.0900778836267 C 593.2611332311451 308.24919253610807 592.6102350657607 309.82147446498567 592.6108799999998 311.46071 L 592.6108799999998 313.15071 L 533.9008799999998 313.15071 L 533.9008799999998 227.85071 L 685.4408799999998 227.85071 Z M 693.3108799999999 313.15071 L 693.3108799999999 227.85071 L 734.2008799999999 227.85071 L 728.0308799999999 313.15071 Z" stroke-linecap="round" />
</g>
<g transform="matrix(1 0 0 1 891.77 839.68)"  >
<path style="stroke: none; stroke-width: 1; stroke-dasharray: none; stroke-linecap: butt; stroke-dashoffset: 0; stroke-linejoin: miter; stroke-miterlimit: 4; fill: rgb(242,242,242); fill-rule: nonzero; opacity: 1;" vector-effect="non-scaling-stroke"  transform=" translate(-951.78, -749.68)" d="M 952.68408 740.6 L 953.46576 723.02395 C 961.614481789395 718.6682360323683 970.7032839348855 716.3675107104807 979.9429700000001 716.32155 C 967.2264200000001 726.71827 968.8156100000001 746.75955 960.1940800000001 760.74069 C 954.6794699449208 769.5319903782354 945.465940723354 775.3381255922504 935.1556200000001 776.5192999999999 L 924.514 783.03481 C 921.5588301194155 766.5602654880703 925.9656761275852 749.6178297857772 936.57352 736.67112 C 939.5496030341167 733.1113987808955 942.9621160915362 729.9406241570631 946.7305200000001 727.23363 C 949.27916 733.954 952.68408 740.6 952.68408 740.6 Z" stroke-linecap="round" />
</g>
<g transform="matrix(1 0 0 1 333.69 815.43)"  >
<path style="stroke: none; stroke-width: 1; stroke-dasharray: none; stroke-linecap: butt; stroke-dashoffset: 0; stroke-linejoin: miter; stroke-miterlimit: 4; fill: rgb(242,242,242); fill-rule: nonzero; opacity: 1;" vector-effect="non-scaling-stroke"  transform=" translate(-393.69, -725.43)" d="M 381.73337 721.33965 L 356.05293 713.56465 C 352.68495462953405 699.8814945118494 352.70801886342963 685.5830288412411 356.12012 671.9108100000001 C 366.6954 694.61981 396.91211999999996 699.8195900000001 414.32693 717.82681 C 425.242160651674 729.2877595042041 430.3525973726757 745.0908320086668 428.21493 760.77286 L 433.83592999999996 778.95369 C 408.37590258687067 777.1160273657604 384.9972361262794 764.2221280615706 369.85924 743.669 C 365.7194012735289 737.9300841272943 362.3187414745284 731.6926808827425 359.73752 725.1039999999999 C 370.62924 723.86851 381.73337 721.33965 381.73337 721.33965 Z" stroke-linecap="round" />
</g>
<g transform="matrix(1 0 0 1 555.92 730.26)"  >
<path style="stroke: none; stroke-width: 1; stroke-dasharray: none; stroke-linecap: butt; stroke-dashoffset: 0; stroke-linejoin: miter; stroke-miterlimit: 4; fill: rgb(230,230,230); fill-rule: nonzero; opacity: 1;" vector-effect="non-scaling-stroke"  transform=" translate(-615.92, -640.26)" d="M 932.70084 780.16074 C 932.6971358941996 780.6929548205662 932.4853799000355 781.2026048404188 932.1108399999999 781.58074 C 931.7366122597695 781.9537976155474 931.2292482574868 782.1625005384722 930.70084 782.16074 L 922.66084 782.16074 C 922.1298446334081 782.1625814802184 921.6200661715031 781.9524591932093 921.244593489147 781.5769865108531 C 920.8691208067908 781.2015138284969 920.6589985197817 780.691735366592 920.66084 780.16074 L 920.66084 537.02074 C 920.66084 531.66074 918.86084 527.31074 916.65084 527.30074 L 314.16084 527.30074 C 311.94084 527.31074 310.15084 531.66074 310.14084 537.02074 L 310.14084 778.67074 C 310.1374196476099 779.7002075375902 309.35537480089795 780.5600247999973 308.33084 780.66074 C 306.71084 780.82074 305.09084 780.96074 303.48084 781.09074 C 303.44084 781.09074 303.40084 781.10074 303.36084 781.10074 C 302.48084 781.18074 301.60084 781.24069 300.72084 781.31074 L 300.71084 781.31074 C 300.25084000000004 780.48074 299.81084000000004 779.6307400000001 299.36084 778.78074 C 299.2165891968706 778.4919189815931 299.1412832059312 778.1735800198948 299.14083999999997 777.8507400000001 L 299.14083999999997 524.41074 C 299.14083999999997 522.93074 299.20083999999997 521.44074 299.30084 519.97074 C 299.44352562892203 517.9521558026912 299.69388194230396 515.9426291272788 300.05084 513.95074 C 301.74084 504.66074 305.56084 498.37074 309.90084 498.35074 L 920.90084 498.35074 C 921.5342334559749 498.35494950090606 922.160189920652 498.4876080462326 922.74084 498.74069 C 923.5936619162569 499.1181046781404 924.3647141620343 499.6581809207774 925.01084 500.33068999999995 C 925.887904565009 501.2424853287928 926.6379978297697 502.26839764158217 927.24084 503.38068999999996 C 929.38084 507.15068999999994 930.91084 512.77069 931.4508400000001 519.3106899999999 C 931.4508400000001 519.3706899999999 931.4608400000001 519.4306899999999 931.4608400000001 519.4906899999999 C 931.6008400000001 521.1107499999998 931.6708400000001 522.7606899999998 931.6608400000001 524.4106899999998 L 931.8008400000001 545.8406899999998 L 931.8908400000001 558.6206899999997 L 932.1608400000001 598.7206899999998 L 932.2608400000001 612.9606899999998 Z" stroke-linecap="round" />
</g>
<g transform="matrix(1 0 0 1 788 873.6)"  >
<path style="stroke: none; stroke-width: 1; stroke-dasharray: none; stroke-linecap: butt; stroke-dashoffset: 0; stroke-linejoin: miter; stroke-miterlimit: 4; fill: rgb(202,202,202); fill-rule: nonzero; opacity: 1;" vector-effect="non-scaling-stroke"  transform=" translate(-848, -783.6)" d="M 985.875 784.64191 L 710.125 784.94924 C 709.4687499812349 784.9473381715289 708.9377606340088 784.4148077745319 708.9377606340088 783.7585550000001 C 708.9377606340088 783.1023022254682 709.4687499812349 782.5697718284712 710.125 782.5678700000001 L 985.875 782.2605400000001 C 986.5312500187651 782.2624418284712 987.0622393659912 782.7949722254682 987.0622393659912 783.451225 C 987.0622393659912 784.107477774532 986.5312500187651 784.640008171529 985.875 784.64191 Z" stroke-linecap="round" />
</g>
<g transform="matrix(1 0 0 1 559.18 557.19)"  >
<path style="stroke: none; stroke-width: 1; stroke-dasharray: none; stroke-linecap: butt; stroke-dashoffset: 0; stroke-linejoin: miter; stroke-miterlimit: 4; fill: rgb(47,46,65); fill-rule: nonzero; opacity: 1;" vector-effect="non-scaling-stroke"  transform=" translate(-619.19, -467.19)" d="M 643.60243 427.312 L 594.76423 427.312 C 593.3255526265342 427.314180014289 592.1608590075477 428.4818817894725 592.16239 429.92056 L 592.16239 507.07056 L 646.211 507.07056 L 646.211 429.92056 C 646.2113636940132 429.2286137093891 645.9366494750334 428.564903416139 645.4473685553071 428.0756243720799 C 644.9580876355808 427.58634532802085 644.2943762892116 427.3116336533932 643.60243 427.312 Z M 619.3476400000001 471.14767 C 616.1687751916307 471.13289083552655 613.595446725411 468.55958468011363 613.58064 465.38072 L 613.58064 456.48214 C 613.5806401208182 453.29711393315716 616.1626139331572 450.71514021876067 619.34764 450.71514021876067 C 622.5326660668428 450.71514021876067 625.1146398791818 453.29711393315716 625.11464 456.48214 L 625.11464 465.38072 C 625.0998332745891 468.55958468011363 622.5265048083693 471.13289083552655 619.34764 471.14767 Z" stroke-linecap="round" />
</g>
<g transform="matrix(1 0 0 1 560.09 474.11)"  >
<path style="stroke: none; stroke-width: 1; stroke-dasharray: none; stroke-linecap: butt; stroke-dashoffset: 0; stroke-linejoin: miter; stroke-miterlimit: 4; fill: rgb(63,61,86); fill-rule: nonzero; opacity: 1;" vector-effect="non-scaling-stroke"  transform=" translate(-620.09, -384.11)" d="M 724.4741 306.91074 L 515.70984 306.91074 C 511.9754777466322 306.91668096382557 508.9496530406242 309.94248778181924 508.94369 313.67685 L 508.94369 454.55185 C 508.94728430432826 458.287195160856 511.9744948179604 461.31438777828123 515.70984 461.31796 L 724.4741 461.31796 C 728.2094451820396 461.3143877782813 731.2366556956717 458.287195160856 731.2402500000001 454.55185 L 731.2402500000001 313.67685 C 731.2342869593758 309.94248778181924 728.2084622533679 306.9166809638255 724.4741 306.91074 Z" stroke-linecap="round" />
</g>
<g transform="matrix(1 0 0 1 560.09 474.11)"  >
<path style="stroke: none; stroke-width: 1; stroke-dasharray: none; stroke-linecap: butt; stroke-dashoffset: 0; stroke-linejoin: miter; stroke-miterlimit: 4; fill: rgb(255,255,255); fill-rule: nonzero; opacity: 1;" vector-effect="non-scaling-stroke"  transform=" translate(-620.09, -384.11)" d="M 722.728 311.79652 L 517.45046 311.79652 C 515.4508972142837 311.800881472914 513.8321768266701 313.4229524705034 513.83195 315.42251999999996 L 513.83195 452.80584 C 513.8354013823229 454.8028565336604 515.4534434663396 456.42089861767715 517.45046 456.42435 L 722.728 456.42435 C 724.7250165336603 456.42089861767715 726.3430586176771 454.8028565336604 726.34651 452.80584 L 726.34651 315.42256 C 726.3463052272903 313.4229768562309 724.7275783975662 311.8008815093471 722.728 311.79652 Z" stroke-linecap="round" />
</g>
<g transform="matrix(1 0 0 1 559.18 599.05)"  >
<path style="stroke: none; stroke-width: 1; stroke-dasharray: none; stroke-linecap: butt; stroke-dashoffset: 0; stroke-linejoin: miter; stroke-miterlimit: 4; fill: rgb(63,61,86); fill-rule: nonzero; opacity: 1;" vector-effect="non-scaling-stroke"  transform=" translate(-619.19, -509.05)" d="M 591.99474 504.6028 L 591.99474 512.04624 C 591.9963904214217 512.8492226181877 592.6469373367482 513.4997516512752 593.44992 513.50138 L 644.92349 513.50138 C 645.7254726559859 513.4973649516313 646.3746149516313 512.8482226559859 646.37863 512.04624 L 646.37863 504.6028 Z" stroke-linecap="round" />
</g>
<g transform="matrix(1 0 0 1 561.68 599.35)"  >
<path style="stroke: none; stroke-width: 1; stroke-dasharray: none; stroke-linecap: butt; stroke-dashoffset: 0; stroke-linejoin: miter; stroke-miterlimit: 4; fill: rgb(47,46,65); fill-rule: nonzero; opacity: 1;" vector-effect="non-scaling-stroke"  transform=" translate(-621.68, -509.34)" d="M 682.74694 516.09149 L 560.618 516.09149 C 559.9409570661294 516.0914900281282 559.3000179813893 515.7861645207715 558.8734238630915 515.2604225759565 C 558.4468297447938 514.7346806311414 558.2800775454294 514.0445934773721 558.4195400000001 513.38207 L 560.3145400000001 504.38177 C 560.5367489999123 503.34435000070863 561.4516959666981 502.6018739295543 562.51264 502.59802 L 680.85226 502.59802 C 681.9132016287693 502.6018748391198 682.8281452235864 503.3443515517452 683.05035 504.38177 L 684.9454099999999 513.38207 C 685.0848728154291 514.0445951916148 684.9181193786429 514.7346841028647 684.4915229864932 515.2604264586022 C 684.0649265943435 515.7861688143398 683.423984685676 516.0914930417175 682.7469399999999 516.09149 Z" stroke-linecap="round" />
</g>
<g transform="matrix(1 0 0 1 505.26 595.35)"  >
<rect style="stroke: none; stroke-width: 1; stroke-dasharray: none; stroke-linecap: butt; stroke-dashoffset: 0; stroke-linejoin: miter; stroke-miterlimit: 4; fill: rgb(63,61,86); fill-rule: nonzero; opacity: 1;" vector-effect="non-scaling-stroke"  x="-1.88" y="-1.13" rx="0.48819" ry="0.48819" width="3.76" height="2.26" />
</g>
<g transform="matrix(1 0 0 1 512.78 595.35)"  >
<rect style="stroke: none; stroke-width: 1; stroke-dasharray: none; stroke-linecap: butt; stroke-dashoffset: 0; stroke-linejoin: miter; stroke-miterlimit: 4; fill: rgb(63,61,86); fill-rule: nonzero; opacity: 1;" vector-effect="non-scaling-stroke"  x="-1.88" y="-1.13" rx="0.48819" ry="0.48819" width="3.76" height="2.26" />
</g>
<g transform="matrix(1 0 0 1 520.31 595.35)"  >
<rect style="stroke: none; stroke-width: 1; stroke-dasharray: none; stroke-linecap: butt; stroke-dashoffset: 0; stroke-linejoin: miter; stroke-miterlimit: 4; fill: rgb(63,61,86); fill-rule: nonzero; opacity: 1;" vector-effect="non-scaling-stroke"  x="-1.88" y="-1.13" rx="0.48819" ry="0.48819" width="3.76" height="2.26" />
</g>
<g transform="matrix(1 0 0 1 527.83 595.35)"  >
<rect style="stroke: none; stroke-width: 1; stroke-dasharray: none; stroke-linecap: butt; stroke-dashoffset: 0; stroke-linejoin: miter; stroke-miterlimit: 4; fill: rgb(63,61,86); fill-rule: nonzero; opacity: 1;" vector-effect="non-scaling-stroke"  x="-1.88" y="-1.13" rx="0.48819" ry="0.48819" width="3.76" height="2.26" />
</g>
<g transform="matrix(1 0 0 1 535.35 595.35)"  >
<rect style="stroke: none; stroke-width: 1; stroke-dasharray: none; stroke-linecap: butt; stroke-dashoffset: 0; stroke-linejoin: miter; stroke-miterlimit: 4; fill: rgb(63,61,86); fill-rule: nonzero; opacity: 1;" vector-effect="non-scaling-stroke"  x="-1.88" y="-1.13" rx="0.48819" ry="0.48819" width="3.76" height="2.26" />
</g>
<g transform="matrix(1 0 0 1 542.87 595.35)"  >
<rect style="stroke: none; stroke-width: 1; stroke-dasharray: none; stroke-linecap: butt; stroke-dashoffset: 0; stroke-linejoin: miter; stroke-miterlimit: 4; fill: rgb(63,61,86); fill-rule: nonzero; opacity: 1;" vector-effect="non-scaling-stroke"  x="-1.88" y="-1.13" rx="0.48819" ry="0.48819" width="3.76" height="2.26" />
</g>
<g transform="matrix(1 0 0 1 550.4 595.35)"  >
<rect style="stroke: none; stroke-width: 1; stroke-dasharray: none; stroke-linecap: butt; stroke-dashoffset: 0; stroke-linejoin: miter; stroke-miterlimit: 4; fill: rgb(63,61,86); fill-rule: nonzero; opacity: 1;" vector-effect="non-scaling-stroke"  x="-1.88" y="-1.13" rx="0.48819" ry="0.48819" width="3.76" height="2.26" />
</g>
<g transform="matrix(1 0 0 1 557.92 595.35)"  >
<rect style="stroke: none; stroke-width: 1; stroke-dasharray: none; stroke-linecap: butt; stroke-dashoffset: 0; stroke-linejoin: miter; stroke-miterlimit: 4; fill: rgb(63,61,86); fill-rule: nonzero; opacity: 1;" vector-effect="non-scaling-stroke"  x="-1.88" y="-1.13" rx="0.48819" ry="0.48819" width="3.76" height="2.26" />
</g>
<g transform="matrix(1 0 0 1 565.44 595.35)"  >
<rect style="stroke: none; stroke-width: 1; stroke-dasharray: none; stroke-linecap: butt; stroke-dashoffset: 0; stroke-linejoin: miter; stroke-miterlimit: 4; fill: rgb(63,61,86); fill-rule: nonzero; opacity: 1;" vector-effect="non-scaling-stroke"  x="-1.88" y="-1.13" rx="0.48819" ry="0.48819" width="3.76" height="2.26" />
</g>
<g transform="matrix(1 0 0 1 572.97 595.35)"  >
<rect style="stroke: none; stroke-width: 1; stroke-dasharray: none; stroke-linecap: butt; stroke-dashoffset: 0; stroke-linejoin: miter; stroke-miterlimit: 4; fill: rgb(63,61,86); fill-rule: nonzero; opacity: 1;" vector-effect="non-scaling-stroke"  x="-1.88" y="-1.13" rx="0.48819" ry="0.48819" width="3.76" height="2.26" />
</g>
<g transform="matrix(1 0 0 1 580.49 595.35)"  >
<rect style="stroke: none; stroke-width: 1; stroke-dasharray: none; stroke-linecap: butt; stroke-dashoffset: 0; stroke-linejoin: miter; stroke-miterlimit: 4; fill: rgb(63,61,86); fill-rule: nonzero; opacity: 1;" vector-effect="non-scaling-stroke"  x="-1.88" y="-1.13" rx="0.48819" ry="0.48819" width="3.76" height="2.26" />
</g>
<g transform="matrix(1 0 0 1 588.01 595.35)"  >
<rect style="stroke: none; stroke-width: 1; stroke-dasharray: none; stroke-linecap: butt; stroke-dashoffset: 0; stroke-linejoin: miter; stroke-miterlimit: 4; fill: rgb(63,61,86); fill-rule: nonzero; opacity: 1;" vector-effect="non-scaling-stroke"  x="-1.88" y="-1.13" rx="0.48819" ry="0.48819" width="3.76" height="2.26" />
</g>
<g transform="matrix(1 0 0 1 595.53 595.35)"  >
<rect style="stroke: none; stroke-width: 1; stroke-dasharray: none; stroke-linecap: butt; stroke-dashoffset: 0; stroke-linejoin: miter; stroke-miterlimit: 4; fill: rgb(63,61,86); fill-rule: nonzero; opacity: 1;" vector-effect="non-scaling-stroke"  x="-1.88" y="-1.13" rx="0.48819" ry="0.48819" width="3.76" height="2.26" />
</g>
<g transform="matrix(1 0 0 1 603.06 595.35)"  >
<rect style="stroke: none; stroke-width: 1; stroke-dasharray: none; stroke-linecap: butt; stroke-dashoffset: 0; stroke-linejoin: miter; stroke-miterlimit: 4; fill: rgb(63,61,86); fill-rule: nonzero; opacity: 1;" vector-effect="non-scaling-stroke"  x="-1.88" y="-1.13" rx="0.48819" ry="0.48819" width="3.76" height="2.26" />
</g>
<g transform="matrix(1 0 0 1 610.58 595.35)"  >
<rect style="stroke: none; stroke-width: 1; stroke-dasharray: none; stroke-linecap: butt; stroke-dashoffset: 0; stroke-linejoin: miter; stroke-miterlimit: 4; fill: rgb(63,61,86); fill-rule: nonzero; opacity: 1;" vector-effect="non-scaling-stroke"  x="-1.88" y="-1.13" rx="0.48819" ry="0.48819" width="3.76" height="2.26" />
</g>
<g transform="matrix(1 0 0 1 618.1 595.35)"  >
<rect style="stroke: none; stroke-width: 1; stroke-dasharray: none; stroke-linecap: butt; stroke-dashoffset: 0; stroke-linejoin: miter; stroke-miterlimit: 4; fill: rgb(63,61,86); fill-rule: nonzero; opacity: 1;" vector-effect="non-scaling-stroke"  x="-1.88" y="-1.13" rx="0.48819" ry="0.48819" width="3.76" height="2.26" />
</g>
<g transform="matrix(1 0 0 1 505.17 599.11)"  >
<rect style="stroke: none; stroke-width: 1; stroke-dasharray: none; stroke-linecap: butt; stroke-dashoffset: 0; stroke-linejoin: miter; stroke-miterlimit: 4; fill: rgb(63,61,86); fill-rule: nonzero; opacity: 1;" vector-effect="non-scaling-stroke"  x="-1.88" y="-1.13" rx="0.48819" ry="0.48819" width="3.76" height="2.26" />
</g>
<g transform="matrix(1 0 0 1 512.69 599.11)"  >
<rect style="stroke: none; stroke-width: 1; stroke-dasharray: none; stroke-linecap: butt; stroke-dashoffset: 0; stroke-linejoin: miter; stroke-miterlimit: 4; fill: rgb(63,61,86); fill-rule: nonzero; opacity: 1;" vector-effect="non-scaling-stroke"  x="-1.88" y="-1.13" rx="0.48819" ry="0.48819" width="3.76" height="2.26" />
</g>
<g transform="matrix(1 0 0 1 520.22 599.11)"  >
<rect style="stroke: none; stroke-width: 1; stroke-dasharray: none; stroke-linecap: butt; stroke-dashoffset: 0; stroke-linejoin: miter; stroke-miterlimit: 4; fill: rgb(63,61,86); fill-rule: nonzero; opacity: 1;" vector-effect="non-scaling-stroke"  x="-1.88" y="-1.13" rx="0.48819" ry="0.48819" width="3.76" height="2.26" />
</g>
<g transform="matrix(1 0 0 1 527.74 599.11)"  >
<rect style="stroke: none; stroke-width: 1; stroke-dasharray: none; stroke-linecap: butt; stroke-dashoffset: 0; stroke-linejoin: miter; stroke-miterlimit: 4; fill: rgb(63,61,86); fill-rule: nonzero; opacity: 1;" vector-effect="non-scaling-stroke"  x="-1.88" y="-1.13" rx="0.48819" ry="0.48819" width="3.76" height="2.26" />
</g>
<g transform="matrix(1 0 0 1 535.26 599.11)"  >
<rect style="stroke: none; stroke-width: 1; stroke-dasharray: none; stroke-linecap: butt; stroke-dashoffset: 0; stroke-linejoin: miter; stroke-miterlimit: 4; fill: rgb(63,61,86); fill-rule: nonzero; opacity: 1;" vector-effect="non-scaling-stroke"  x="-1.88" y="-1.13" rx="0.48819" ry="0.48819" width="3.76" height="2.26" />
</g>
<g transform="matrix(1 0 0 1 542.79 599.11)"  >
<rect style="stroke: none; stroke-width: 1; stroke-dasharray: none; stroke-linecap: butt; stroke-dashoffset: 0; stroke-linejoin: miter; stroke-miterlimit: 4; fill: rgb(63,61,86); fill-rule: nonzero; opacity: 1;" vector-effect="non-scaling-stroke"  x="-1.88" y="-1.13" rx="0.48819" ry="0.48819" width="3.76" height="2.26" />
</g>
<g transform="matrix(1 0 0 1 550.31 599.11)"  >
<rect style="stroke: none; stroke-width: 1; stroke-dasharray: none; stroke-linecap: butt; stroke-dashoffset: 0; stroke-linejoin: miter; stroke-miterlimit: 4; fill: rgb(63,61,86); fill-rule: nonzero; opacity: 1;" vector-effect="non-scaling-stroke"  x="-1.88" y="-1.13" rx="0.48819" ry="0.48819" width="3.76" height="2.26" />
</g>
<g transform="matrix(1 0 0 1 557.83 599.11)"  >
<rect style="stroke: none; stroke-width: 1; stroke-dasharray: none; stroke-linecap: butt; stroke-dashoffset: 0; stroke-linejoin: miter; stroke-miterlimit: 4; fill: rgb(63,61,86); fill-rule: nonzero; opacity: 1;" vector-effect="non-scaling-stroke"  x="-1.88" y="-1.13" rx="0.48819" ry="0.48819" width="3.76" height="2.26" />
</g>
<g transform="matrix(1 0 0 1 565.35 599.11)"  >
<rect style="stroke: none; stroke-width: 1; stroke-dasharray: none; stroke-linecap: butt; stroke-dashoffset: 0; stroke-linejoin: miter; stroke-miterlimit: 4; fill: rgb(63,61,86); fill-rule: nonzero; opacity: 1;" vector-effect="non-scaling-stroke"  x="-1.88" y="-1.13" rx="0.48819" ry="0.48819" width="3.76" height="2.26" />
</g>
<g transform="matrix(1 0 0 1 572.88 599.11)"  >
<rect style="stroke: none; stroke-width: 1; stroke-dasharray: none; stroke-linecap: butt; stroke-dashoffset: 0; stroke-linejoin: miter; stroke-miterlimit: 4; fill: rgb(63,61,86); fill-rule: nonzero; opacity: 1;" vector-effect="non-scaling-stroke"  x="-1.88" y="-1.13" rx="0.48819" ry="0.48819" width="3.76" height="2.26" />
</g>
<g transform="matrix(1 0 0 1 580.4 599.11)"  >
<rect style="stroke: none; stroke-width: 1; stroke-dasharray: none; stroke-linecap: butt; stroke-dashoffset: 0; stroke-linejoin: miter; stroke-miterlimit: 4; fill: rgb(63,61,86); fill-rule: nonzero; opacity: 1;" vector-effect="non-scaling-stroke"  x="-1.88" y="-1.13" rx="0.48819" ry="0.48819" width="3.76" height="2.26" />
</g>
<g transform="matrix(1 0 0 1 587.92 599.11)"  >
<rect style="stroke: none; stroke-width: 1; stroke-dasharray: none; stroke-linecap: butt; stroke-dashoffset: 0; stroke-linejoin: miter; stroke-miterlimit: 4; fill: rgb(63,61,86); fill-rule: nonzero; opacity: 1;" vector-effect="non-scaling-stroke"  x="-1.88" y="-1.13" rx="0.48819" ry="0.48819" width="3.76" height="2.26" />
</g>
<g transform="matrix(1 0 0 1 595.45 599.11)"  >
<rect style="stroke: none; stroke-width: 1; stroke-dasharray: none; stroke-linecap: butt; stroke-dashoffset: 0; stroke-linejoin: miter; stroke-miterlimit: 4; fill: rgb(63,61,86); fill-rule: nonzero; opacity: 1;" vector-effect="non-scaling-stroke"  x="-1.88" y="-1.13" rx="0.48819" ry="0.48819" width="3.76" height="2.26" />
</g>
<g transform="matrix(1 0 0 1 602.97 599.11)"  >
<rect style="stroke: none; stroke-width: 1; stroke-dasharray: none; stroke-linecap: butt; stroke-dashoffset: 0; stroke-linejoin: miter; stroke-miterlimit: 4; fill: rgb(63,61,86); fill-rule: nonzero; opacity: 1;" vector-effect="non-scaling-stroke"  x="-1.88" y="-1.13" rx="0.48819" ry="0.48819" width="3.76" height="2.26" />
</g>
<g transform="matrix(1 0 0 1 610.49 599.11)"  >
<rect style="stroke: none; stroke-width: 1; stroke-dasharray: none; stroke-linecap: butt; stroke-dashoffset: 0; stroke-linejoin: miter; stroke-miterlimit: 4; fill: rgb(63,61,86); fill-rule: nonzero; opacity: 1;" vector-effect="non-scaling-stroke"  x="-1.88" y="-1.13" rx="0.48819" ry="0.48819" width="3.76" height="2.26" />
</g>
<g transform="matrix(1 0 0 1 618.01 599.11)"  >
<rect style="stroke: none; stroke-width: 1; stroke-dasharray: none; stroke-linecap: butt; stroke-dashoffset: 0; stroke-linejoin: miter; stroke-miterlimit: 4; fill: rgb(63,61,86); fill-rule: nonzero; opacity: 1;" vector-effect="non-scaling-stroke"  x="-1.88" y="-1.13" rx="0.48819" ry="0.48819" width="3.76" height="2.26" />
</g>
<g transform="matrix(1 0 0 1 554.44 603.62)"  >
<rect style="stroke: none; stroke-width: 1; stroke-dasharray: none; stroke-linecap: butt; stroke-dashoffset: 0; stroke-linejoin: miter; stroke-miterlimit: 4; fill: rgb(63,61,86); fill-rule: nonzero; opacity: 1;" vector-effect="non-scaling-stroke"  x="-15.045" y="-1.13" rx="0.48819" ry="0.48819" width="30.09" height="2.26" />
</g>
<g transform="matrix(1 0 0 1 556.38 419.96)"  >
<path style="stroke: none; stroke-width: 1; stroke-dasharray: none; stroke-linecap: butt; stroke-dashoffset: 0; stroke-linejoin: miter; stroke-miterlimit: 4; fill: rgb(202,202,202); fill-rule: nonzero; opacity: 1;" vector-effect="non-scaling-stroke"  transform=" translate(-616.37, -329.96)" d="M 712.41257 330.72615 L 520.33525 330.72615 C 519.9195819486827 330.717509730468 519.5871274297352 330.37807284195077 519.5871274297352 329.962315 C 519.5871274297352 329.54655715804927 519.9195819486827 329.207120269532 520.33525 329.19848 L 712.41257 329.19848 C 712.8282380513173 329.207120269532 713.1606925702647 329.54655715804927 713.1606925702647 329.962315 C 713.1606925702647 330.37807284195077 712.8282380513173 330.717509730468 712.41257 330.72615 Z" stroke-linecap="round" />
</g>
<g transform="matrix(1 0 0 1 473.41 410.73)"  >
<ellipse style="stroke: none; stroke-width: 1; stroke-dasharray: none; stroke-linecap: butt; stroke-dashoffset: 0; stroke-linejoin: miter; stroke-miterlimit: 4; fill: rgb(63,61,86); fill-rule: nonzero; opacity: 1;" vector-effect="non-scaling-stroke"  cx="0" cy="0" rx="4.47645" ry="4.57621" />
</g>
<g transform="matrix(1 0 0 1 488.88 410.73)"  >
<ellipse style="stroke: none; stroke-width: 1; stroke-dasharray: none; stroke-linecap: butt; stroke-dashoffset: 0; stroke-linejoin: miter; stroke-miterlimit: 4; fill: rgb(63,61,86); fill-rule: nonzero; opacity: 1;" vector-effect="non-scaling-stroke"  cx="0" cy="0" rx="4.47645" ry="4.57621" />
</g>
<g transform="matrix(1 0 0 1 504.34 410.73)"  >
<ellipse style="stroke: none; stroke-width: 1; stroke-dasharray: none; stroke-linecap: butt; stroke-dashoffset: 0; stroke-linejoin: miter; stroke-miterlimit: 4; fill: rgb(63,61,86); fill-rule: nonzero; opacity: 1;" vector-effect="non-scaling-stroke"  cx="0" cy="0" rx="4.47645" ry="4.57621" />
</g>
<g transform="matrix(1 0 0 1 637.61 408.11)"  >
<path style="stroke: none; stroke-width: 1; stroke-dasharray: none; stroke-linecap: butt; stroke-dashoffset: 0; stroke-linejoin: miter; stroke-miterlimit: 4; fill: rgb(63,61,86); fill-rule: nonzero; opacity: 1;" vector-effect="non-scaling-stroke"  transform=" translate(-697.61, -318.11)" d="M 703.10187 317.28032 L 692.117 317.28032 C 691.6640905778149 317.2893417783464 691.3016482339137 317.65907573158063 691.3016482339137 318.112075 C 691.3016482339137 318.5650742684194 691.6640905778149 318.9348082216536 692.117 318.94383 L 703.1018899999999 318.94383 C 703.5547994221849 318.9348082216536 703.9172417660861 318.5650742684194 703.9172417660861 318.112075 C 703.9172417660861 317.65907573158063 703.5547994221849 317.2893417783464 703.1018899999999 317.28032 Z" stroke-linecap="round" />
</g>
<g transform="matrix(1 0 0 1 637.61 411.23)"  >
<path style="stroke: none; stroke-width: 1; stroke-dasharray: none; stroke-linecap: butt; stroke-dashoffset: 0; stroke-linejoin: miter; stroke-miterlimit: 4; fill: rgb(63,61,86); fill-rule: nonzero; opacity: 1;" vector-effect="non-scaling-stroke"  transform=" translate(-697.61, -321.23)" d="M 703.10187 320.40247 L 692.117 320.40247 C 691.6640905778149 320.4114917783464 691.3016482339137 320.7812257315806 691.3016482339137 321.234225 C 691.3016482339137 321.68722426841936 691.6640905778149 322.0569582216536 692.117 322.06597999999997 L 703.1018899999999 322.06597999999997 C 703.5547994221849 322.0569582216536 703.9172417660861 321.68722426841936 703.9172417660861 321.234225 C 703.9172417660861 320.7812257315806 703.5547994221849 320.4114917783464 703.1018899999999 320.40247 Z" stroke-linecap="round" />
</g>
<g transform="matrix(1 0 0 1 637.61 414.35)"  >
<path style="stroke: none; stroke-width: 1; stroke-dasharray: none; stroke-linecap: butt; stroke-dashoffset: 0; stroke-linejoin: miter; stroke-miterlimit: 4; fill: rgb(63,61,86); fill-rule: nonzero; opacity: 1;" vector-effect="non-scaling-stroke"  transform=" translate(-697.61, -324.35)" d="M 703.10187 323.52052 L 692.117 323.52052 C 691.6640905778149 323.52954177834636 691.3016482339137 323.8992757315806 691.3016482339137 324.35227499999996 C 691.3016482339137 324.80527426841934 691.6640905778149 325.17500822165357 692.117 325.18402999999995 L 703.1018899999999 325.18402999999995 C 703.5547994221849 325.17500822165357 703.9172417660861 324.80527426841934 703.9172417660861 324.35227499999996 C 703.9172417660861 323.8992757315806 703.5547994221849 323.52954177834636 703.1018899999999 323.52052 Z" stroke-linecap="round" />
</g>
<g transform="matrix(1 0 0 1 559.72 468.62)"  >
<rect style="stroke: none; stroke-width: 1; stroke-dasharray: none; stroke-linecap: butt; stroke-dashoffset: 0; stroke-linejoin: miter; stroke-miterlimit: 4; fill: rgb(108,99,255); fill-rule: nonzero; opacity: 1;" vector-effect="non-scaling-stroke"  x="-15.265" y="-3.265" rx="3.26417" ry="3.26417" width="30.53" height="6.53" />
</g>
<g transform="matrix(1 0 0 1 559.72 481.68)"  >
<rect style="stroke: none; stroke-width: 1; stroke-dasharray: none; stroke-linecap: butt; stroke-dashoffset: 0; stroke-linejoin: miter; stroke-miterlimit: 4; fill: rgb(230,230,230); fill-rule: nonzero; opacity: 1;" vector-effect="non-scaling-stroke"  x="-30.77" y="-3.265" rx="3.26417" ry="3.26417" width="61.54" height="6.53" />
</g>
<g transform="matrix(1 0 0 1 559.72 494.72)"  >
<rect style="stroke: none; stroke-width: 1; stroke-dasharray: none; stroke-linecap: butt; stroke-dashoffset: 0; stroke-linejoin: miter; stroke-miterlimit: 4; fill: rgb(230,230,230); fill-rule: nonzero; opacity: 1;" vector-effect="non-scaling-stroke"  x="-30.77" y="-3.265" rx="3.26417" ry="3.26417" width="61.54" height="6.53" />
</g>
<g transform="matrix(1 0 0 1 432.21 654.91)"  >
<path style="stroke: none; stroke-width: 1; stroke-dasharray: none; stroke-linecap: butt; stroke-dashoffset: 0; stroke-linejoin: miter; stroke-miterlimit: 4; fill: rgb(63,61,86); fill-rule: nonzero; opacity: 1;" vector-effect="non-scaling-stroke"  transform=" translate(-492.21, -564.91)" d="M 522.21085 525.91074 L 462.21085000000005 525.91074 C 457.7925720013537 525.91074 454.21085000000005 529.4924620013537 454.21085000000005 533.91074 C 454.21085000000005 538.3290179986463 457.7925720013537 541.91074 462.21085000000005 541.91074 L 484.21085000000005 541.91074 L 484.21085000000005 603.91074 L 500.21085000000005 603.91074 L 500.21085000000005 541.91074 L 522.21085 541.91074 C 526.6291279986464 541.91074 530.21085 538.3290179986463 530.21085 533.91074 C 530.21085 529.4924620013537 526.6291279986464 525.91074 522.21085 525.91074 Z" stroke-linecap="round" />
</g>
<g transform="matrix(1 0 0 1 366.76 594.75)"  >
<path style="stroke: none; stroke-width: 1; stroke-dasharray: none; stroke-linecap: butt; stroke-dashoffset: 0; stroke-linejoin: miter; stroke-miterlimit: 4; fill: rgb(63,61,86); fill-rule: nonzero; opacity: 1;" vector-effect="non-scaling-stroke"  transform=" translate(-426.76, -504.75)" d="M 561.81193 638.24766 L 401.329 638.24766 C 369.17040799325804 638.1300774237368 341.9625995805558 614.4472049574692 337.41249 582.61192 L 331.73181999999997 561.71626 C 319.97392343178143 518.4159304840452 302.0643407506443 477.0265379901438 278.55047 438.81313000000006 C 267.80314999999996 421.35937 262.27153 404.46426 274.83563999999996 388.19788 Q 274.99610999999993 387.99012 275.15126 387.78819 C 285.22841 374.67197 335.38563999999997 371.83261999999996 351.73670999999996 371.28037 Q 352.70570999999995 371.24737 353.68201999999997 371.24766 L 453.50086999999996 371.24766 Q 454.47792 371.24766 455.4457 371.28037 C 473.4039398006488 371.8038717649566 489.6253301979675 382.14318230970053 497.68201999999997 398.20127 C 506.2789055533451 414.59603134605857 505.1820402182362 434.38672809370536 494.82606999999996 449.73106 C 459.76258999999993 502.40196000000003 449.02723999999995 535.42832 460.01795999999996 556.81606 C 470.64930999999996 577.50356 503.23817999999994 588.08071 562.57656 590.10121 C 578.52285 590.64421 585.8412 603.0612100000001 585.89247 614.36782 C 585.94228 625.38246 578.90615 637.5436000000001 563.33974 638.2154700000001 Q 562.581 638.24767 561.81193 638.24766 Z" stroke-linecap="round" />
</g>
<g transform="matrix(1 0 0 1 398.59 795.25)"  >
<path style="stroke: none; stroke-width: 1; stroke-dasharray: none; stroke-linecap: butt; stroke-dashoffset: 0; stroke-linejoin: miter; stroke-miterlimit: 4; fill: rgb(63,61,86); fill-rule: nonzero; opacity: 1;" vector-effect="non-scaling-stroke"  transform=" translate(-458.59, -705.25)" d="M 428.59155 780.74756 L 488.59155 780.74756 C 493.00982799864636 780.74756 496.59155 777.1658379986463 496.59155 772.74756 C 496.59155 768.3292820013537 493.00982799864636 764.74756 488.59155 764.74756 L 466.59155 764.74756 L 466.59155 629.74756 L 450.59155 629.74756 L 450.59155 764.74756 L 428.59155 764.74756 C 424.1732720013536 764.74756 420.59155 768.3292820013537 420.59155 772.74756 C 420.59155 777.1658379986463 424.1732720013536 780.74756 428.59155 780.74756 Z" stroke-linecap="round" />
</g>
<g transform="matrix(1 0 0 1 333.92 470.82)"  >
<path style="stroke: none; stroke-width: 1; stroke-dasharray: none; stroke-linecap: butt; stroke-dashoffset: 0; stroke-linejoin: miter; stroke-miterlimit: 4; fill: rgb(47,46,65); fill-rule: nonzero; opacity: 1;" vector-effect="non-scaling-stroke"  transform=" translate(-393.92, -380.81)" d="M 423.79975 376.2586 L 425.05747 383.9016 C 425.65247000000005 387.6076 427.80711 413.78734999999995 426.21085000000005 416.91072999999994 C 426.0701700000001 411.07924999999994 415.21085000000005 401.91072999999994 408.1746600000001 404.0041499999999 L 397.13234000000006 406.4575699999999 L 390.2788800000001 407.9824099999999 L 384.70081000000005 409.2054799999999 L 368.49171000000007 412.74673999999993 C 368.4634300000001 412.55857999999995 368.44290000000007 412.3586899999999 368.4146100000001 412.17053999999996 C 368.37630000000007 411.93334999999996 368.3379900000001 411.69622999999996 368.2898800000001 411.46110999999996 C 367.9881191864319 409.9409450597754 367.43763085618446 408.4809780686633 366.66059000000007 407.14001999999994 C 366.57833378274427 408.9362723704302 366.04807780007405 410.6834195795815 365.1181000000001 412.22238999999996 C 365.09267311903466 412.26246483354845 365.07057251566584 412.3045556467137 365.0520200000001 412.34824 C 364.76407828662514 412.81417129176003 364.4463750714402 413.2610394541971 364.1008900000001 413.68606 C 364.0848498097208 413.6971917791904 364.0703858538304 413.7104380718175 364.0578900000001 413.72544 C 364.0578900000001 413.72544 360.7274000000001 360.63544 361.0762800000001 360.14554 C 361.33165000000014 359.79724 361.5890300000001 359.4588 361.85822000000013 359.12809999999996 C 362.12541000000016 358.78765999999996 362.38480000000015 358.45896999999997 362.66373000000016 358.12627999999995 C 362.69947101126235 358.0947129202017 362.7297815412107 358.05748691379273 362.75345000000016 358.01608999999996 C 363.5346668103689 357.09137402609514 364.36203140170977 356.2066532240263 365.2323900000002 355.3653 C 365.4882000000002 355.11902 365.7538200000002 354.87073 366.01939000000016 354.62244 C 370.0745174861326 350.8704415677917 374.9195516005696 348.07574662786624 380.19775000000016 346.44413 C 380.79314000000016 346.26106 381.41214000000014 346.0936 382.04089000000016 345.92407 C 382.66189000000014 345.76640999999995 383.29472000000015 345.61649 383.93149000000017 345.48618999999997 L 384.14705000000015 345.44208 C 384.4507600000002 345.37994 384.76627000000013 345.32559 385.07199000000014 345.27326 C 385.45599000000016 345.20489 385.84213000000017 345.14626 386.22044000000017 345.0995 C 391.1313840817409 344.39211149469037 396.13417797357715 344.67328403607974 400.9349300000001 345.9265 C 400.9447400000002 345.92449999999997 400.9467400000002 345.93429999999995 400.95655000000016 345.93228999999997 C 404.9639452057827 346.9794900598426 408.77283814857697 348.67577957526083 412.23207000000014 350.95383999999996 C 418.2155300000001 354.90455999999995 420.54459000000014 361.34842999999995 422.19859000000014 368.58371999999997 C 422.77845 371.068 423.2665 373.65257 423.79975 376.2586 Z" stroke-linecap="round" />
</g>
<g transform="matrix(1 0 0 1 441.75 798.88)"  >
<polygon style="stroke: none; stroke-width: 1; stroke-dasharray: none; stroke-linecap: butt; stroke-dashoffset: 0; stroke-linejoin: miter; stroke-miterlimit: 4; fill: rgb(255,182,182); fill-rule: nonzero; opacity: 1;" vector-effect="non-scaling-stroke"  points="-18.85,17.44 -8.51,23.06 18.85,-14.77 3.59,-23.06 -18.85,17.44 " />
</g>
<g transform="matrix(1 0 0 1 436.23 823.16)"  >
<path style="stroke: none; stroke-width: 1; stroke-dasharray: none; stroke-linecap: butt; stroke-dashoffset: 0; stroke-linejoin: miter; stroke-miterlimit: 4; fill: rgb(47,46,65); fill-rule: nonzero; opacity: 1;" vector-effect="non-scaling-stroke"  transform=" translate(-496.23, -733.16)" d="M 487.87263 712.8416 L 506.63663 718.71726 L 503.65004000000005 726.57826 L 516.51682 745.253 C 517.8214410736067 747.1459521051247 517.7434935784892 749.6673479102302 516.3244364860725 751.4760990778749 C 514.9053793936557 753.2848502455197 512.474981146478 753.9606290392929 510.32593 753.144 L 488.48205 744.845 L 487.67112000000003 735.63877 L 483.24684 742.8560200000001 L 475.01084000000003 739.72702 Z" stroke-linecap="round" />
</g>
<g transform="matrix(1 0 0 1 434.68 619.09)"  >
<path style="stroke: none; stroke-width: 1; stroke-dasharray: none; stroke-linecap: butt; stroke-dashoffset: 0; stroke-linejoin: miter; stroke-miterlimit: 4; fill: rgb(255,182,182); fill-rule: nonzero; opacity: 1;" vector-effect="non-scaling-stroke"  transform=" translate(-494.69, -529.1)" d="M 541.44384 557.1108 C 538.1041967037092 557.9239813976664 534.5758932438788 557.2161349490699 531.8083338240895 555.1777296434682 C 529.0407744043 553.1393243378664 527.318253099992 549.979752807477 527.10427 546.5492 L 438.94282000000004 514.8328 L 455.12239000000005 500.75316000000004 L 538.8001300000001 534.07006 C 544.716951167457 534.0930725024692 549.6814556833065 538.5378823271271 550.3559354697193 544.4161796418821 C 551.030415256132 550.2944769566371 547.201678408576 555.7482292078339 541.4438400000001 557.1108 Z" stroke-linecap="round" />
</g>
<g transform="matrix(1 0 0 1 396.04 575.51)"  >
<path style="stroke: none; stroke-width: 1; stroke-dasharray: none; stroke-linecap: butt; stroke-dashoffset: 0; stroke-linejoin: miter; stroke-miterlimit: 4; fill: rgb(18,214,93); fill-rule: nonzero; opacity: 1;" vector-effect="non-scaling-stroke"  transform=" translate(-456.04, -485.51)" d="M 414.31435 436.26007 C 414.31435 436.26007 399.46593 436.58727 398.14581 453.53907 C 396.82568999999995 470.49087 429.22474 512.42098 434.24447 519.33557 C 439.26419999999996 526.2501599999999 495.02121999999997 534.76082 495.02121999999997 534.76082 L 513.9752199999999 521.00082 C 494.05907999999994 508.09582 475.88301999999993 498.20070999999996 463.6849299999999 498.64581999999996 Z" stroke-linecap="round" />
</g>
<g transform="matrix(1 0 0 1 368.17 612.33)"  >
<path style="stroke: none; stroke-width: 1; stroke-dasharray: none; stroke-linecap: butt; stroke-dashoffset: 0; stroke-linejoin: miter; stroke-miterlimit: 4; fill: rgb(255,182,182); fill-rule: nonzero; opacity: 1;" vector-effect="non-scaling-stroke"  transform=" translate(-428.18, -522.33)" d="M 396.10358 511.05773 L 399.72176 526.6038599999999 C 399.72176 526.6038599999999 399.75731 540.9387599999999 402.29603000000003 543.5818599999999 C 404.81703000000005 546.2126599999999 460.25142000000005 540.9304599999999 460.25142000000005 540.9304599999999 C 460.25142000000005 540.9304599999999 454.37395000000004 517.8307599999999 454.45214000000004 500.3520499999999 Z" stroke-linecap="round" />
</g>
<g transform="matrix(1 0 0 1 417.28 711.34)"  >
<path style="stroke: none; stroke-width: 1; stroke-dasharray: none; stroke-linecap: butt; stroke-dashoffset: 0; stroke-linejoin: miter; stroke-miterlimit: 4; fill: rgb(47,46,65); fill-rule: nonzero; opacity: 1;" vector-effect="non-scaling-stroke"  transform=" translate(-477.28, -621.34)" d="M 513.21085 709.91074 L 493.21085000000005 698.91074 C 492.83045000000004 672.8859600000001 508.48399000000006 637.66727 527.0503900000001 600.7783000000001 C 485.5273900000001 607.9195900000001 446.3542600000001 610.2073 412.4712100000001 601.56843 C 400.8968764106693 598.5119091932917 393.92114262475496 586.7284333593501 396.8084400000001 575.11073 Q 397.00626000000005 574.28843 397.26594000000006 573.4835899999999 C 401.32110000000006 561.1111199999999 392.2283100000001 553.3555899999999 400.59153000000003 539.74754 C 422.58793000000003 532.23527 443.48362000000003 530.1138699999999 462.59153000000003 536.74754 L 474.564 563.21891 L 533.90651 555.5398100000001 C 539.6973162218691 554.8475072122246 545.5248946027501 556.4955208398948 550.0955032593276 560.1179863480285 C 554.6661119159052 563.7404518561622 557.6015354415999 569.0376121734545 558.2501 574.8334800000001 Q 558.36972 575.7997500000001 558.4064 576.7739000000001 C 546.40726 633.02659 532.95267 683.64243 513.21085 709.91074 Z" stroke-linecap="round" />
</g>
<g transform="matrix(0.98 -0.2 0.2 0.98 333.87 469.33)"  >
<circle style="stroke: none; stroke-width: 1; stroke-dasharray: none; stroke-linecap: butt; stroke-dashoffset: 0; stroke-linejoin: miter; stroke-miterlimit: 4; fill: rgb(255,182,182); fill-rule: nonzero; opacity: 1;" vector-effect="non-scaling-stroke"  cx="0" cy="0" r="24.8051" />
</g>
<g transform="matrix(1 0 0 1 358.97 567.51)"  >
<path style="stroke: none; stroke-width: 1; stroke-dasharray: none; stroke-linecap: butt; stroke-dashoffset: 0; stroke-linejoin: miter; stroke-miterlimit: 4; fill: rgb(18,214,93); fill-rule: nonzero; opacity: 1;" vector-effect="non-scaling-stroke"  transform=" translate(-418.96, -477.51)" d="M 388.04818 412.63474 L 410.90918 411.28492 C 412.885446344728 411.16823470269617 414.7181636979243 412.31800240750886 415.47309 414.14812 L 421.93354 429.80976 L 448.78369 452.00183999999996 C 448.78369 452.00183999999996 459.4144 465.52984 459.43913 483.00093999999996 C 459.46385999999995 500.47203999999994 463.21081999999996 540.9107399999999 463.21081999999996 540.9107399999999 C 463.21081999999996 540.9107399999999 447.69581999999997 519.0720799999999 438.11959999999993 524.88051 C 436.49040999999994 525.86869 435.9173599999999 527.88951 434.21081999999996 528.9107399999999 C 433.35957999999994 529.4201499999999 431.39298999999994 528.9249599999999 430.53333999999995 529.4352799999999 C 417.33747999999997 537.26875 403.57555999999994 544.92175 402.28968 543.5798599999999 C 399.76498 540.9451899999999 396.70232999999996 527.4822499999999 396.70232999999996 527.4822499999999 L 375.77613999999994 450.5950599999999 C 373.4789738050831 442.4039170773195 374.96428247578064 433.6147195877755 379.8254999999999 426.6332899999999 C 381.28743999999995 424.57497999999987 382.81916999999993 423.0436999999999 384.24263999999994 422.7904299999999 C 387.43879 422.10991 385.73869 414.94653 388.04818 412.63474 Z" stroke-linecap="round" />
</g>
<g transform="matrix(1 0 0 1 514.11 824.92)"  >
<polygon style="stroke: none; stroke-width: 1; stroke-dasharray: none; stroke-linecap: butt; stroke-dashoffset: 0; stroke-linejoin: miter; stroke-miterlimit: 4; fill: rgb(255,182,182); fill-rule: nonzero; opacity: 1;" vector-effect="non-scaling-stroke"  points="8.4,23.98 18.05,17.27 -3.81,-23.98 -18.05,-14.07 8.4,23.98 " />
</g>
<g transform="matrix(1 0 0 1 433.19 732.4)"  >
<path style="stroke: none; stroke-width: 1; stroke-dasharray: none; stroke-linecap: butt; stroke-dashoffset: 0; stroke-linejoin: miter; stroke-miterlimit: 4; fill: rgb(47,46,65); fill-rule: nonzero; opacity: 1;" vector-effect="non-scaling-stroke"  transform=" translate(-493.19, -642.4)" d="M 583.97591 731.21686 L 568.85233 744.73511 C 544.80455 717.93945 526.625 680.35933 511.2189 637.6824 C 470.85307 625.8602000000001 440.4119 606.79404 413.83704 584.1559 C 404.82171 576.5274 398.0635 566.72735 405.75236 557.4347 Q 406.29153 556.78308 406.87836 556.1744 C 415.95668 546.8444 438.979 548.6224 452.46294 540.07476 L 482.58431 572.27114 L 480.68965000000003 580.90275 L 537.26685 600.06765 C 542.765294044757 601.9946524127953 547.2665237466805 606.0376472573862 549.7705547999218 611.2984507793443 C 552.274585853163 616.5592543013024 552.5740504043904 622.6022003647242 550.6024199999999 628.0848 Q 550.2845699999999 629.00508 549.8889099999999 629.89604 Z" stroke-linecap="round" />
</g>
<g transform="matrix(1 0 0 1 540.99 852.99)"  >
<path style="stroke: none; stroke-width: 1; stroke-dasharray: none; stroke-linecap: butt; stroke-dashoffset: 0; stroke-linejoin: miter; stroke-miterlimit: 4; fill: rgb(47,46,65); fill-rule: nonzero; opacity: 1;" vector-effect="non-scaling-stroke"  transform=" translate(-600.99, -762.99)" d="M 576.891 756.17082 L 592.3384699999999 744.00589 L 597.1383299999999 750.91074 L 619.8163299999999 750.8417400000001 C 622.1152823925704 750.8344486874961 624.15185818815 752.3229969403832 624.8428482776512 754.5156592405914 C 625.5338383671525 756.7083215407997 624.7186687861162 759.0955616683249 622.8309099999999 760.4076600000001 L 603.644 773.74523 L 595.58906 769.21423 L 599.04558 776.94181 L 591.8113599999999 781.97062 Z" stroke-linecap="round" />
</g>
<g transform="matrix(1 0 0 1 341.49 648.5)"  >
<path style="stroke: none; stroke-width: 1; stroke-dasharray: none; stroke-linecap: butt; stroke-dashoffset: 0; stroke-linejoin: miter; stroke-miterlimit: 4; fill: rgb(255,182,182); fill-rule: nonzero; opacity: 1;" vector-effect="non-scaling-stroke"  transform=" translate(-401.49, -558.5)" d="M 421.80643 606.40346 C 418.6424217866936 605.0605164040003 416.23576089690096 602.3850906307889 415.23403044544364 599.0970849162971 C 414.2322999939864 595.8090792018054 414.7384002469241 592.2462457450749 416.61615 589.36727 L 364.86186 511.26564999999994 L 386.24811 509.63992999999994 L 433.45056 586.34656 C 438.1818273386859 589.8996505488395 439.50785185885445 596.4299154960145 436.53712732099086 601.5469594472136 C 433.5664027831273 606.6640033984128 427.2379272258389 608.7504114191973 421.80643 606.40346 Z" stroke-linecap="round" />
</g>
<g transform="matrix(1 0 0 1 329.87 585.87)"  >
<path style="stroke: none; stroke-width: 1; stroke-dasharray: none; stroke-linecap: butt; stroke-dashoffset: 0; stroke-linejoin: miter; stroke-miterlimit: 4; fill: rgb(18,214,93); fill-rule: nonzero; opacity: 1;" vector-effect="non-scaling-stroke"  transform=" translate(-389.88, -495.87)" d="M 392.0494 433.54131 C 392.0494 433.54131 379.94621 424.93344 368.76071 437.73937 C 357.57521 450.5453 358.50919 503.52604 358.40409 512.0699500000001 C 358.37117 514.7453600000001 362.23451 520.51831 367.5572 527.18654 C 369.94679 530.1802 372.63051 533.35431 375.38786000000005 536.50954 C 376.98351 538.33547 375.60862000000003 542.13599 377.21086 543.91069 C 378.8043 545.67569 383.37504 545.4152700000001 384.89070000000004 547.0533800000001 C 392.08484000000004 554.8288100000001 397.9293 560.74751 397.9293 560.74751 L 421.34954 561.03551 C 421.61376 543.62535 409.69103 528.08483 394.37377 513.06505 Z" stroke-linecap="round" />
</g>
<g transform="matrix(1 0 0 1 328.8 474.41)"  >
<path style="stroke: none; stroke-width: 1; stroke-dasharray: none; stroke-linecap: butt; stroke-dashoffset: 0; stroke-linejoin: miter; stroke-miterlimit: 4; fill: rgb(47,46,65); fill-rule: nonzero; opacity: 1;" vector-effect="non-scaling-stroke"  transform=" translate(-388.8, -384.41)" d="M 424.88167 367.27942 C 423.96389999999997 367.73262 423.07347999999996 368.17 422.19867 368.58375 C 418.68867366710543 370.3091676231388 415.06129832489745 371.7847522737738 411.34357 372.99951 C 410.72483516447477 371.3168209903217 409.78104076648583 369.77232605864435 408.56597 368.45403999999996 C 408.876957658678 370.2745732307899 408.7185218679515 372.1443413426044 408.10564 373.88658999999996 C 402.47819035326114 375.28028094973735 396.57114313048 375.05220526447675 391.06791 373.22874999999993 C 394.66684 379.8925499999999 397.32583 393.93459999999993 397.13235 406.45757999999995 C 397.04796999999996 413.07893999999993 396.15175 419.27431999999993 394.19466 423.72706999999997 L 391.6798 416.0759 C 391.446622447441 413.34278399947846 390.97791203245316 410.63490243000194 390.27889 407.98242 C 388.59259 400.53942 387.01824999999997 405.51599999999996 384.70081999999996 409.20549 L 368.49172 412.74675 C 368.46344 412.55859000000004 368.44291 412.3587 368.41462 412.17055000000005 C 368.37631 411.93336000000005 368.338 411.69624000000005 368.28989 411.46112000000005 C 367.9881291864318 409.9409550597755 367.4376408561844 408.4809880686634 366.6606 407.14003 C 366.5783437827442 408.93628237043026 366.048087800074 410.68342957958157 365.11811 412.22240000000005 C 365.0926831190346 412.26247483354854 365.07058251566576 412.3045656467138 365.05203 412.34825000000006 C 364.76408828662505 412.8141812917601 364.4463850714401 413.2610494541972 364.1009 413.6860700000001 C 364.08485980972074 413.6972017791905 364.0703958538303 413.7104480718176 364.0579 413.7254500000001 C 353.59299000000004 415.1258000000001 346.25690000000003 361.1594500000001 361.07828 360.15530000000007 C 361.50916 360.12610000000006 361.59105 359.46862000000004 361.85823 359.12811000000005 C 362.12542 358.78767000000005 362.38481 358.45898000000005 362.66374 358.12629000000004 C 362.6994810112622 358.0947229202018 362.72979154121055 358.0574969137928 362.75346 358.01610000000005 C 363.54564 357.09862000000004 364.36541 356.21643000000006 365.23240000000004 355.3653100000001 C 365.48821000000004 355.11903000000007 365.75383000000005 354.87074000000007 366.0194 354.6224500000001 C 370.0871327595575 350.88879387842553 374.92922324798946 348.0995425292184 380.19977 346.4539500000001 C 380.79515 346.2708800000001 381.41215 346.09361000000007 382.0409 345.92408000000006 C 382.6619 345.76642000000004 383.29473 345.6165000000001 383.9315 345.48620000000005 L 384.14706 345.44209000000006 C 384.45077000000003 345.37995000000006 384.76628 345.32560000000007 385.072 345.2732700000001 C 385.456 345.20490000000007 385.84214000000003 345.1462700000001 386.22045 345.09951000000007 C 387.64085869249607 345.8153930438902 388.8562130549407 346.88025090818473 389.75257000000005 348.19425000000007 L 400.1079500000001 346.07531000000006 Q 400.5194800000001 345.9911200000001 400.9369500000001 345.93631000000005 L 400.9565600000001 345.93231000000003 C 413.88488 343.76663 422.1974 354.16122 424.88167 367.27942 Z" stroke-linecap="round" />
</g>
<g transform="matrix(1 0 0 1 307.76 440.29)"  >
<path style="stroke: none; stroke-width: 1; stroke-dasharray: none; stroke-linecap: butt; stroke-dashoffset: 0; stroke-linejoin: miter; stroke-miterlimit: 4; fill: rgb(47,46,65); fill-rule: nonzero; opacity: 1;" vector-effect="non-scaling-stroke"  transform=" translate(-367.76, -350.29)" d="M 368.44232 357.73831 C 366.22502 359.33871 363.89232 360.98745 361.1867 361.38402 C 358.48107999999996 361.78059 355.31356 360.47265000000004 354.56478 357.84261000000004 C 353.64925999999997 354.62688 356.55305999999996 351.69889000000006 359.16292999999996 349.60899000000006 L 367.43882999999994 342.98199000000005 C 368.9543936015036 341.6378999914177 370.66525932093407 340.5317260559936 372.5129299999999 339.70129000000003 C 374.39284499346746 338.8741050125433 376.5468089658071 338.9461153687171 378.36727999999994 339.89701 C 380.1758756993914 341.118318742147 381.2217563963783 343.1901625644529 381.13037999999995 345.37059000000005 C 381.0123421503757 347.5197887996105 380.3030603644507 349.59464297367 379.08074999999997 351.36635000000007 C 375.9763814258547 356.20507970322655 371.03112969664977 359.56669214329787 365.38964999999996 360.67309000000006" stroke-linecap="round" />
</g>
<g transform="matrix(1 0 0 1 341.21 658.91)"  >
<path style="stroke: none; stroke-width: 1; stroke-dasharray: none; stroke-linecap: butt; stroke-dashoffset: 0; stroke-linejoin: miter; stroke-miterlimit: 4; fill: rgb(63,61,86); fill-rule: nonzero; opacity: 1;" vector-effect="non-scaling-stroke"  transform=" translate(-401.21, -568.91)" d="M 431.21085 529.91074 L 371.21085 529.91074 C 366.7925720013536 529.91074 363.21085 533.4924620013537 363.21085 537.91074 C 363.21085 542.3290179986463 366.7925720013536 545.91074 371.21085 545.91074 L 393.21085 545.91074 L 393.21085 607.91074 L 409.21085 607.91074 L 409.21085 545.91074 L 431.21085 545.91074 C 435.62912799864637 545.91074 439.21085 542.3290179986463 439.21085 537.91074 C 439.21085 533.4924620013537 435.62912799864637 529.91074 431.21085 529.91074 Z" stroke-linecap="round" />
</g>
<g transform="matrix(1 0 0 1 373.5 872.6)"  >
<path style="stroke: none; stroke-width: 1; stroke-dasharray: none; stroke-linecap: butt; stroke-dashoffset: 0; stroke-linejoin: miter; stroke-miterlimit: 4; fill: rgb(202,202,202); fill-rule: nonzero; opacity: 1;" vector-effect="non-scaling-stroke"  transform=" translate(-433.5, -782.6)" d="M 652.875 783.64191 L 214.125 783.94924 C 213.46874998123488 783.9473381715289 212.93776063400884 783.4148077745319 212.93776063400884 782.7585550000001 C 212.93776063400884 782.1023022254682 213.46874998123488 781.5697718284712 214.125 781.5678700000001 L 652.875 781.2605400000001 C 653.5312500187651 781.2624418284712 654.0622393659912 781.7949722254682 654.0622393659912 782.451225 C 654.0622393659912 783.107477774532 653.5312500187651 783.640008171529 652.875 783.64191 Z" stroke-linecap="round" />
</g>
<g transform="matrix(1 0 0 1 748.3 727.31)"  >
<polygon style="stroke: none; stroke-width: 1; stroke-dasharray: none; stroke-linecap: butt; stroke-dashoffset: 0; stroke-linejoin: miter; stroke-miterlimit: 4; fill: rgb(160,97,106); fill-rule: nonzero; opacity: 1;" vector-effect="non-scaling-stroke"  points="-27.74,13.51 -17.97,24.16 27.74,-8.45 13.32,-24.16 -27.74,13.51 " />
</g>
<g transform="matrix(1 0 0 1 726.65 758.41)"  >
<path style="stroke: none; stroke-width: 1; stroke-dasharray: none; stroke-linecap: butt; stroke-dashoffset: 0; stroke-linejoin: miter; stroke-miterlimit: 4; fill: rgb(47,46,65); fill-rule: nonzero; opacity: 1;" vector-effect="non-scaling-stroke"  transform=" translate(-786.65, -668.41)" d="M 800.77085 665.89072 L 800.77085 665.88072 L 799.78085 655.25072 L 799.3308499999999 655.04072 L 796.70085 653.79072 L 784.29085 647.92072 L 784.03085 647.64072 L 781.54085 644.92072 L 767.75085 657.5807199999999 L 786.43085 677.9407199999999 L 799.24091 691.90072 L 799.6709099999999 691.50072 C 803.2162655937126 688.2524828036077 805.3244392905689 683.7277476175769 805.5307787716979 678.9237893342003 C 805.7371182528269 674.1198310508236 804.0246856820761 669.4309932917992 800.77091 665.89072 Z" stroke-linecap="round" />
</g>
<g transform="matrix(1 0 0 1 688.25 822.45)"  >
<polygon style="stroke: none; stroke-width: 1; stroke-dasharray: none; stroke-linecap: butt; stroke-dashoffset: 0; stroke-linejoin: miter; stroke-miterlimit: 4; fill: rgb(160,97,106); fill-rule: nonzero; opacity: 1;" vector-effect="non-scaling-stroke"  points="-18.3,24.56 -4.48,28.76 18.3,-22.56 -2.1,-28.76 -18.3,24.56 " />
</g>
<g transform="matrix(1 0 0 1 685.12 856.96)"  >
<path style="stroke: none; stroke-width: 1; stroke-dasharray: none; stroke-linecap: butt; stroke-dashoffset: 0; stroke-linejoin: miter; stroke-miterlimit: 4; fill: rgb(47,46,65); fill-rule: nonzero; opacity: 1;" vector-effect="non-scaling-stroke"  transform=" translate(-745.12, -766.97)" d="M 765.74088 768.50071 C 763.4902903450329 764.2500784634175 759.6285480435832 761.0799914995409 755.0208799999999 759.7007100000001 L 748.7508799999999 751.0507100000001 L 748.2608799999999 751.0907100000001 L 731.6908799999999 752.61071 L 731.3208799999999 752.50066 L 727.8008799999999 751.43066 L 722.3608799999998 769.34066 L 766.9308199999998 782.8806599999999 L 767.1008199999998 782.3106599999999 C 768.505443111389 777.7099991754277 768.0159235110308 772.7390142753817 765.74088 768.50071 Z" stroke-linecap="round" />
</g>
<g transform="matrix(1 0 0 1 756.14 696.44)"  >
<path style="stroke: none; stroke-width: 1; stroke-dasharray: none; stroke-linecap: butt; stroke-dashoffset: 0; stroke-linejoin: miter; stroke-miterlimit: 4; fill: rgb(47,46,65); fill-rule: nonzero; opacity: 1;" vector-effect="non-scaling-stroke"  transform=" translate(-816.13, -606.44)" d="M 843.93174 488.31824 C 843.93174 488.31824 932.18307 573.52567 876.39206 599.9002399999999 L 859.14813 599.9002399999999 C 859.14813 599.9002399999999 853.96613 581.4901 842.1026800000001 565.9649599999999 C 840.4734900000001 563.8328999999999 834.3701000000001 564.26596 832.6751300000001 562.18815 C 822.3258900000001 549.50105 811.1060200000001 538.60515 803.3571300000001 539.0377599999999 L 805.2108600000001 597.91076 L 808.2108600000001 618.91076 C 809.7860900000002 629.76663 765.3285600000002 724.55369 765.3285600000002 724.55369 L 737.3853000000001 713.5714899999999 C 737.3853000000001 713.5714899999999 766.4986300000002 635.50028 766.8396700000002 624.2451899999999 L 743.509 500.49065 Z" stroke-linecap="round" />
</g>
<g transform="matrix(1 0 0 1 733.65 496.9)"  >
<path style="stroke: none; stroke-width: 1; stroke-dasharray: none; stroke-linecap: butt; stroke-dashoffset: 0; stroke-linejoin: miter; stroke-miterlimit: 4; fill: rgb(18,214,93); fill-rule: nonzero; opacity: 1;" vector-effect="non-scaling-stroke"  transform=" translate(-793.65, -406.9)" d="M 851.29087 492.52073 C 850.8409586402763 493.16241338875426 850.2532964130181 493.695409362314 849.57087 494.08073 C 848.4464102283524 494.7164379086351 847.2277784954903 495.1687832055978 845.96087 495.42073 C 826.09087 499.93073 761.18087 509.28073 744.33087 504.82072999999997 C 742.26087 504.28072999999995 740.91087 503.52072999999996 740.47087 502.52072999999996 C 739.06087 499.36072999999993 739.24087 486.01072999999997 740.07087 469.89072999999996 C 740.22087 466.87073 743.55087 463.60072999999994 743.75087 460.44073 C 743.89087 458.07072999999997 740.9008699999999 455.84072999999995 741.0608699999999 453.43073 C 742.1608699999999 437.13072999999997 743.5808699999999 420.52072999999996 744.5308699999999 410.02072999999996 C 745.13087 403.27072999999996 745.5408699999999 399.05072999999993 745.5408699999999 399.05072999999993 L 735.2908699999999 334.42072999999993 L 735.77087 333.6307299999999 L 736.3108699999999 333.3607799999999 L 769.3608699999999 317.0007799999999 L 771.1608699999998 312.4007799999999 C 772.2280152732128 309.6908263752724 774.8384031052425 307.9043545812734 777.7508699999998 307.8907799999999 L 799.5208699999998 307.8007799999999 C 801.8124137608721 307.78814103555146 803.9689483603323 308.88314661937477 805.3108699999998 310.7407199999999 L 811.2108699999998 318.9107199999999 L 850.2108699999998 343.9107199999999 L 850.0608699999998 344.3707199999999 L 831.7608699999998 400.0607199999999 L 831.6708699999998 404.40071999999986 L 831.6708699999998 404.41071999999986 L 830.9908699999999 439.31071999999983 L 832.8808699999998 444.04071999999985 L 830.7508699999998 451.80071999999984 C 830.7508699999998 451.80071999999984 831.7308699999999 460.87066999999985 836.9808699999999 467.61071999999984 C 841.7408699999999 473.73071999999985 847.8008699999999 480.11071999999984 850.5408699999998 485.29071999999985 L 850.5408699999998 485.30071999999984 C 852.06083 488.16074 852.57084 490.64072 851.29087 492.52073 Z" stroke-linecap="round" />
</g>
<g transform="matrix(1 0 0 1 784.11 700.39)"  >
<path style="stroke: none; stroke-width: 1; stroke-dasharray: none; stroke-linecap: butt; stroke-dashoffset: 0; stroke-linejoin: miter; stroke-miterlimit: 4; fill: rgb(47,46,65); fill-rule: nonzero; opacity: 1;" vector-effect="non-scaling-stroke"  transform=" translate(-844.11, -610.39)" d="M 880.62942 594.83867 L 875.9123099999999 600.7991099999999 C 875.9123099999999 600.7991099999999 832.5289099999999 631.1507499999999 831.03918 633.98723 L 824.1829299999999 640.47502 L 807.5934199999999 622.74164 L 816.22061 611.92833 C 823.1246375899667 603.2748461902081 832.0446865693141 596.4457103041245 842.19985 592.03878 L 842.19985 592.03878 L 855.4216 580.30842 Z" stroke-linecap="round" />
</g>
<g transform="matrix(1 0 0 1 797.04 553.07)"  >
<path style="stroke: none; stroke-width: 1; stroke-dasharray: none; stroke-linecap: butt; stroke-dashoffset: 0; stroke-linejoin: miter; stroke-miterlimit: 4; fill: rgb(160,97,106); fill-rule: nonzero; opacity: 1;" vector-effect="non-scaling-stroke"  transform=" translate(-857.04, -463.07)" d="M 853.06311 509.65128 L 845.16283 433.181 L 843.0776 401.7083 L 865.19025 397.70989000000003 C 865.19025 397.70989000000003 864.31407 420.21380000000005 867.2108499999999 432.91074000000003 C 870.06949 445.43993 867.59008 507.97238000000004 867.4134399999999 509.64445 C 870.7380024609099 512.6173349021709 871.8836044007257 517.3332103042401 870.2934446879376 521.5000019100049 C 868.7032849751496 525.6667935157698 864.7071161069441 528.4204309263846 860.2472107612806 528.422553606038 C 855.7873054156171 528.4246762856914 851.7885171862077 525.6748440528654 850.1943918487883 521.5095679987911 C 848.6002665113688 517.3442919447169 849.7413789173928 512.6273281872592 853.0631099999999 509.65128 Z" stroke-linecap="round" />
</g>
<g transform="matrix(1 0 0 1 791.51 482.27)"  >
<path style="stroke: none; stroke-width: 1; stroke-dasharray: none; stroke-linecap: butt; stroke-dashoffset: 0; stroke-linejoin: miter; stroke-miterlimit: 4; fill: rgb(18,214,93); fill-rule: nonzero; opacity: 1;" vector-effect="non-scaling-stroke"  transform=" translate(-851.52, -394)" d="M 874.63334 449.02771 L 846.2108499999999 454.91071 L 843.7255799999999 445.00315 L 840.82837 441.92954000000003 L 835.0397399999999 411.60618000000005 L 826.7346699999999 393.8431800000001 L 828.89352 333.0992800000001 L 849.98723 344.28672000000006 L 850.01297 344.30652000000003 C 853.23921 347.80867 855.46281 352.82111000000003 859.15997 357.85078000000004 C 870.80997 373.69953000000004 872.10197 412.21064 871.74945 433.30500000000006 C 871.74365 433.6512200000001 872.09185 434.01666000000006 872.51018 434.4012000000001 C 876.5992118910914 438.15507221665587 877.48629325549 444.2660980616978 874.63337 449.02767000000006 Z" stroke-linecap="round" />
</g>
<g transform="matrix(1 0 0 1 660.38 556.07)"  >
<path style="stroke: none; stroke-width: 1; stroke-dasharray: none; stroke-linecap: butt; stroke-dashoffset: 0; stroke-linejoin: miter; stroke-miterlimit: 4; fill: rgb(160,97,106); fill-rule: nonzero; opacity: 1;" vector-effect="non-scaling-stroke"  transform=" translate(-720.38, -466.07)" d="M 724.3586 512.65128 L 732.25888 436.18097000000006 L 734.34411 404.70830000000007 L 712.23146 400.7098900000001 C 712.23146 400.7098900000001 713.10764 423.2138000000001 710.2108499999999 435.9107400000001 C 707.35222 448.4399300000001 709.8316299999999 510.9723800000001 710.0082699999999 512.6444500000001 C 706.6837143221858 515.6173338142931 705.5381168721508 520.333203562316 707.1282762569061 524.499989105063 C 708.7184356416615 528.6667746478101 712.714599685704 531.4204075084047 717.1744992498662 531.4225301853064 C 721.6343988140284 531.4246528622082 725.6331822149458 528.6748251748082 727.2273072185615 524.5095551834368 C 728.821432222177 520.3442851920654 727.6803243005497 515.6273270929253 724.3585999999999 512.6512800000002 Z" stroke-linecap="round" />
</g>
<g transform="matrix(1 0 0 1 665.9 485.63)"  >
<path style="stroke: none; stroke-width: 1; stroke-dasharray: none; stroke-linecap: butt; stroke-dashoffset: 0; stroke-linejoin: miter; stroke-miterlimit: 4; fill: rgb(18,214,93); fill-rule: nonzero; opacity: 1;" vector-effect="non-scaling-stroke"  transform=" translate(-725.91, -395.64)" d="M 750.69083 396.84074 L 744.53083 410.02074 L 742.3808300000001 414.61073999999996 L 736.5908300000001 444.93067999999994 L 733.7008300000001 448.00067999999993 L 731.2108300000001 457.91067999999996 L 730.0408300000001 457.67067999999995 L 708.9408300000001 453.30067999999994 L 702.7908300000001 452.03067999999996 C 699.9332861064781 447.2694107393196 700.8193147933847 441.1549769235449 704.9108300000001 437.40067999999997 C 705.3308300000001 437.02067999999997 705.6807800000001 436.65067999999997 705.6708300000001 436.30067999999994 C 705.3208300000001 415.21067999999997 706.6108300000002 376.7006799999999 718.2608300000002 360.85067999999995 C 721.9608300000002 355.82068 724.1808300000001 350.81067999999993 727.4108300000001 347.31067999999993 C 727.4208300000001 347.30072999999993 727.4208300000001 347.29067999999995 727.4307800000001 347.29067999999995 L 735.2908300000001 334.42067999999995 L 735.7708300000002 333.6306799999999 L 736.3108300000001 333.36072999999993 Z" stroke-linecap="round" />
</g>
<g transform="matrix(1 0 0 1 728.01 362.64)" id="e944ea38-edcc-43c9-bf24-dbaf21228ba4"  >
<circle style="stroke: none; stroke-width: 1; stroke-dasharray: none; stroke-linecap: butt; stroke-dashoffset: 0; stroke-linejoin: miter; stroke-miterlimit: 4; fill: rgb(160,97,106); fill-rule: nonzero; opacity: 1;" vector-effect="non-scaling-stroke"  cx="0" cy="0" r="28.96563" />
</g>
<g transform="matrix(1 0 0 1 724.43 350.51)"  >
<path style="stroke: none; stroke-width: 1; stroke-dasharray: none; stroke-linecap: butt; stroke-dashoffset: 0; stroke-linejoin: miter; stroke-miterlimit: 4; fill: rgb(47,46,65); fill-rule: nonzero; opacity: 1;" vector-effect="non-scaling-stroke"  transform=" translate(-784.43, -260.51)" d="M 820.57084 259.9307 C 820.47084 254.9907 819.91084 248.6707 816.45084 243.6307 C 813.53084 239.39069999999998 807.64084 236.0307 802.15084 237.7107 C 802.2764230624758 235.4720242304902 801.1318903424241 233.35309203255653 799.19084 232.2307 C 797.1108399999999 230.9607 794.6108399999999 230.7307 792.40084 230.5207 C 786.83084 230.0007 781.06084 229.4607 775.42084 230.5307 C 769.09084 231.73069999999998 763.91084 234.9907 761.22084 239.48069999999998 L 761.16084 239.62069999999997 L 760.61084 242.28069999999997 C 760.4622819224793 243.0026553411952 760.0056686023967 243.62364945650762 759.36084 243.98069999999996 C 758.7151034496609 244.34303233098186 757.941289034301 244.3980415309079 757.25079 244.13069999999996 C 756.491425423876 243.845932064696 755.6380862199248 243.98395941777846 755.0072165422152 244.49359731491322 C 754.3763468645056 245.003235212048 754.0620169881154 245.8084904982817 754.18079 246.61074999999997 L 754.33079 247.67074999999997 L 752.74079 247.37074999999996 C 751.9280503579382 247.2133804109933 751.0937878558436 247.50817960012395 750.5603579667675 248.14123841789916 C 750.0269280776913 248.7742972356744 749.8778741554695 249.6464689003044 750.1707899999999 250.42074999999997 L 750.61079 251.63074999999998 C 749.9471910544087 251.63955771968753 749.3156132096597 251.91745197137715 748.86079 252.40075 C 748.2020023669988 253.11606809074001 748.0807470196768 254.17503145735265 748.56079 255.02075 C 750.3428853303174 258.0627332277818 752.8685369263964 260.60214859277664 755.90079 262.40075 C 757.2644977900522 263.22214284322115 758.7350358605523 263.85141199467085 760.27079 264.27075 Q 760.75079 264.40575 761.26079 264.51075000000003 C 773.5385421066943 267.1567896707579 786.1965493225008 267.5363604359976 798.6107900000001 265.63075000000003 C 797.8797447494563 268.07992775864346 797.5985356099148 270.6413025718167 797.78079 273.19075000000004 C 798.18079 276.38075000000003 800.05079 279.01075000000003 802.55079 279.89075 C 803.117070134031 280.0824777391451 803.6994019907355 280.22304060110827 804.29079 280.31075000000004 C 804.8575255446115 280.4025358332096 805.4159837655344 280.53964234253795 805.96079 280.72075000000007 C 807.5978818632009 281.32045448055294 808.7887176387388 282.7505879913567 809.0820408943828 284.46921439062226 C 809.3753641500266 286.1878407898878 808.7262941147267 287.93199668667586 807.3807899999999 289.04075000000006 C 807.3807899999999 289.04075000000006 810.0007899999999 291.2107500000001 810.33079 291.10075000000006 C 811.6186713195282 290.53188949032017 812.6958367940648 289.57363189284285 813.41079 288.36075000000005 C 818.40086 281.1807 820.81083 271.62071 820.57084 259.9307 Z" stroke-linecap="round" />
</g>
<g transform="matrix(NaN NaN NaN NaN 0 0)"  >
<g style=""   >
</g>
</g>
<g transform="matrix(NaN NaN NaN NaN 0 0)"  >
<g style=""   >
</g>
</g>
<g transform="matrix(NaN NaN NaN NaN 0 0)"  >
<g style=""   >
</g>
</g>
<g transform="matrix(NaN NaN NaN NaN 0 0)"  >
<g style=""   >
</g>
</g>
<g transform="matrix(NaN NaN NaN NaN 0 0)"  >
<g style=""   >
</g>
</g>
<g transform="matrix(NaN NaN NaN NaN 0 0)"  >
<g style=""   >
</g>
</g>
<g transform="matrix(NaN NaN NaN NaN 0 0)"  >
<g style=""   >
</g>
</g>
</svg>